<svg xmlns="http://www.w3.org/2000/svg" width="500" height="500" style="width:100%;height:100%;transform:translate3d(0,0,0);content-visibility:visible" viewBox="0 0 500 500"><defs><clipPath id="e"><path d="M0 0h500v500H0z"/></clipPath><clipPath id="l"><path d="M0 0h500v500H0z"/></clipPath><clipPath id="k"><path d="M0 0h500v500H0z"/></clipPath><clipPath id="i"><path d="M0 0h500v500H0z"/></clipPath><clipPath id="h"><path d="M0 0h500v500H0z"/></clipPath><clipPath id="f"><path d="M0 0h500v500H0z"/></clipPath><filter id="a" width="100%" height="100%" x="0%" y="0%" filterUnits="objectBoundingBox"><feComponentTransfer in="SourceGraphic"><feFuncA tableValues="1.0 0.0" type="table"/></feComponentTransfer></filter><filter id="c" width="100%" height="100%" x="0%" y="0%" filterUnits="objectBoundingBox"><feComponentTransfer in="SourceGraphic"><feFuncA tableValues="1.0 0.0" type="table"/></feComponentTransfer></filter><mask id="j" mask-type="alpha"><g filter="url(#a)"><path fill="#fff" d="M0 0h500v500H0z" opacity="0"/><use xmlns:a0="http://www.w3.org/1999/xlink" a0:href="#b"/></g></mask><mask id="g" mask-type="alpha"><g filter="url(#c)"><path fill="#fff" d="M0 0h500v500H0z" opacity="0"/><use xmlns:a1="http://www.w3.org/1999/xlink" a1:href="#d"/></g></mask><g id="b" class="primary design" style="display:none"><path class="primary"/></g><g id="d" class="primary design" style="display:none"><path class="primary"/></g></defs><g clip-path="url(#e)"><g clip-path="url(#f)" style="display:none"><g class="primary design" style="display:none"><path fill="none" class="primary"/></g><g class="primary design" mask="url(#g)" style="display:none"><path class="primary"/><path fill="none" class="primary"/></g><g class="primary design" style="display:none"><path fill="none" class="primary"/></g><g class="primary design" style="display:none"><path fill="none" class="primary"/></g><g class="primary design" style="display:none"><path fill="none" class="primary"/></g></g><g clip-path="url(#h)" style="display:none"><g class="primary design" style="display:none"><path fill="none" class="primary"/></g><g class="primary design" style="display:none"><path fill="none" class="primary"/></g><g class="primary design" style="display:none"><path fill="none" class="primary"/></g><g class="primary design" style="display:none"><path fill="none" class="primary"/></g><g class="primary design" style="display:none"><path class="primary"/></g></g><g clip-path="url(#i)" style="display:none"><g class="primary design" style="display:none"><path fill="none" class="primary"/></g><g class="primary design" mask="url(#j)" style="display:none"><path class="primary"/><path fill="none" class="primary"/></g><g class="primary design" style="display:none"><path fill="none" class="primary"/></g><g class="primary design" style="display:none"><path fill="none" class="primary"/></g><g class="primary design" style="display:none"><path fill="none" class="primary"/></g><g class="primary design" style="display:none"><path class="primary"/></g><g class="primary design" style="display:none"><path class="primary"/></g></g><g clip-path="url(#k)" style="display:block"><g class="primary design" style="display:none"><path fill="none" class="primary"/></g><g class="primary design" style="display:none"><path fill="none" class="primary"/></g><g class="primary design" style="display:none"><path fill="#6A6A6A" d="m433.048 394.789-34.421-197.916a36.416 36.416 0 0 0-35.944-30.233h-29.327v-20.805c0-45.964-37.395-83.359-83.359-83.359s-83.358 37.395-83.358 83.359v20.805h-29.327a36.415 36.415 0 0 0-35.944 30.232L66.949 394.788a36.4 36.4 0 0 0 8.022 29.735 36.4 36.4 0 0 0 27.922 13h294.211a36.4 36.4 0 0 0 27.919-12.999 36.4 36.4 0 0 0 8.025-29.735M197.939 145.835c0-28.705 23.354-52.059 52.059-52.059s52.058 23.354 52.058 52.059v20.805H197.939zM401.07 404.376c-.58.69-1.866 1.847-3.966 1.847H102.893c-2.101 0-3.388-1.157-3.968-1.847s-1.499-2.155-1.139-4.224l34.42-197.917a5.174 5.174 0 0 1 5.106-4.295h29.327v57.271c0 8.643 7.006 15.65 15.65 15.65s15.65-7.007 15.65-15.65V197.94h104.117v57.271c0 8.643 7.006 15.65 15.65 15.65s15.65-7.007 15.65-15.65V197.94h29.327a5.17 5.17 0 0 1 5.106 4.295l34.421 197.917c.36 2.069-.56 3.535-1.14 4.224" class="primary"/></g><g class="primary design" style="display:block"><path fill="#6A6A6A" d="m433.048 394.789-34.421-197.916a36.416 36.416 0 0 0-35.944-30.233h-29.327v-20.805c0-45.964-37.395-83.359-83.359-83.359s-83.358 37.395-83.358 83.359v20.805h-29.327a36.415 36.415 0 0 0-35.944 30.232L66.949 394.788a36.4 36.4 0 0 0 8.022 29.735 36.4 36.4 0 0 0 27.922 13h294.211a36.4 36.4 0 0 0 27.919-12.999 36.4 36.4 0 0 0 8.025-29.735M197.939 145.835c0-28.705 23.354-52.059 52.059-52.059s52.058 23.354 52.058 52.059v20.805H197.939zM401.07 404.376c-.58.69-1.866 1.847-3.966 1.847H102.893c-2.101 0-3.388-1.157-3.968-1.847s-1.499-2.155-1.139-4.224l34.42-197.917a5.174 5.174 0 0 1 5.106-4.295h29.327v57.271c0 8.643 7.006 15.65 15.65 15.65s15.65-7.007 15.65-15.65V197.94h104.117v57.271c0 8.643 7.006 15.65 15.65 15.65s15.65-7.007 15.65-15.65V197.94h29.327a5.17 5.17 0 0 1 5.106 4.295l34.421 197.917c.36 2.069-.56 3.535-1.14 4.224" class="primary"/></g></g><g clip-path="url(#l)" style="display:none"><g class="primary design" style="display:none"><path fill="none" class="primary"/></g><g class="primary design" style="display:none"><path fill="none" class="primary"/></g><g class="primary design" style="display:none"><path class="primary"/></g></g></g></svg>